<?xml version="1.0" encoding="UTF-8" standalone="no"?>
<!-- Created with Inkscape (http://www.inkscape.org/) -->

<svg
   width="250"
   height="250"
   viewBox="0 0 250 250.00001"
   version="1.1"
   id="svg5"
   inkscape:version="1.2.2 (b0a8486541, 2022-12-01)"
   sodipodi:docname="miner.svg"
   xmlns:inkscape="http://www.inkscape.org/namespaces/inkscape"
   xmlns:sodipodi="http://sodipodi.sourceforge.net/DTD/sodipodi-0.dtd"
   xmlns="http://www.w3.org/2000/svg"
   xmlns:svg="http://www.w3.org/2000/svg">
  <sodipodi:namedview
     id="namedview7"
     pagecolor="#ffffff"
     bordercolor="#000000"
     borderopacity="0.25"
     inkscape:showpageshadow="2"
     inkscape:pageopacity="0.0"
     inkscape:pagecheckerboard="0"
     inkscape:deskcolor="#d1d1d1"
     inkscape:document-units="px"
     showgrid="false"
     inkscape:zoom="1.5981903"
     inkscape:cx="124.20299"
     inkscape:cy="100.42609"
     inkscape:window-width="1918"
     inkscape:window-height="1056"
     inkscape:window-x="0"
     inkscape:window-y="22"
     inkscape:window-maximized="1"
     inkscape:current-layer="layer1" />
  <defs
     id="defs2" />
  <g
     inkscape:label="Layer 1"
     inkscape:groupmode="layer"
     id="layer1">
    <path
       id="rect6046"
       style="fill:#574435;fill-opacity:1;stroke-width:5.19414;stroke-linecap:square"
       d="M 24.046096,56.769705 C 28.61024,52.205553 34.272018,50.518524 36.740637,52.987143 L 179.6573,195.90379 c 2.46861,2.46862 0.78158,8.13039 -3.78258,12.69455 -4.56417,4.56416 -10.22595,6.25121 -12.69455,3.78259 L 20.263501,69.464279 C 17.794882,66.99566 19.48194,61.333887 24.046096,56.769705 Z" />
    <path
       id="path6946"
       style="fill:#6c5442;fill-opacity:1;stroke-width:4.21599;stroke-linecap:square"
       d="m 26.250884,61.246731 c 3.140182,-3.140166 7.571267,-3.765086 9.935189,-1.401176 L 173.04154,196.70104 c 2.36392,2.36391 1.73899,6.79501 -1.40117,9.93517 -3.14015,3.14015 -7.57126,3.76508 -9.93517,1.40116 L 24.849725,71.181912 c -2.363913,-2.363926 -1.73899,-6.795021 1.401159,-9.935181 z" />
    <path
       id="path6637"
       style="fill:#af9885;fill-opacity:1;stroke-width:1.36841;stroke-linecap:square"
       d="m 137.04638,181.56826 1.03914,-1.03913 c 0.22124,-0.22125 1.13205,0.33331 2.04216,1.24342 l 23.76498,23.76498 c 0.91012,0.91011 1.46467,1.82092 1.24342,2.04217 l -1.03914,1.03913 c -0.22125,0.22126 -1.13204,-0.33331 -2.04216,-1.24342 L 138.2898,183.61043 c -0.91011,-0.91011 -1.46468,-1.82091 -1.24342,-2.04217 z" />
    <path
       id="path6641"
       style="fill:#af9885;fill-opacity:1;stroke-width:1.36841;stroke-linecap:square"
       d="m 130.6517,165.27965 1.03911,-1.03911 c 0.22126,-0.22125 1.13208,0.3333 2.04218,1.24342 l 23.76497,23.76497 c 0.91013,0.9101 1.46467,1.82092 1.24342,2.04218 l -1.03909,1.0391 c -0.22128,0.22127 -1.13209,-0.3333 -2.0422,-1.2434 l -23.76497,-23.76499 c -0.91011,-0.91009 -1.46468,-1.82091 -1.24342,-2.04217 z" />
    <path
       id="path6643"
       style="fill:#af9885;fill-opacity:1;stroke-width:1.36841;stroke-linecap:square"
       d="m 100.56339,128.47781 1.03914,-1.03913 c 0.22122,-0.22122 1.13207,0.33332 2.04217,1.24342 l 23.76498,23.76499 c 0.91009,0.91012 1.46465,1.82094 1.24342,2.04217 l -1.03913,1.03913 c -0.22127,0.22126 -1.13207,-0.33331 -2.04217,-1.24341 L 101.80681,130.52 c -0.91011,-0.91011 -1.46467,-1.82091 -1.24342,-2.04219 z" />
    <path
       id="path6645"
       style="fill:#af9885;fill-opacity:1;stroke-width:1.36841;stroke-linecap:square"
       d="m 54.109263,95.849203 1.039134,-1.03913 c 0.22124,-0.221229 1.132063,0.333326 2.04217,1.243419 l 23.764977,23.764978 c 0.910105,0.9101 1.464662,1.82095 1.243419,2.04217 l -1.039113,1.03913 c -0.22127,0.22127 -1.132073,-0.33333 -2.042169,-1.24343 L 55.35269,97.891368 c -0.9101,-0.910113 -1.46468,-1.820898 -1.243427,-2.042165 z" />
    <path
       id="path6647"
       style="fill:#af9885;fill-opacity:1;stroke-width:1.36841;stroke-linecap:square"
       d="m 61.29829,88.893807 1.039135,-1.039117 c 0.221238,-0.221256 1.132041,0.333304 2.04217,1.243419 l 23.764968,23.764961 c 0.910124,0.91012 1.464691,1.82093 1.243429,2.04219 l -1.039113,1.03911 c -0.221252,0.22125 -1.132073,-0.3333 -2.042168,-1.24342 L 62.54171,90.935977 c -0.910107,-0.910119 -1.464672,-1.820915 -1.24342,-2.04217 z" />
    <path
       id="path6649"
       style="fill:#af9885;fill-opacity:1;stroke-width:1.36841;stroke-linecap:square"
       d="m 98.225409,140.82516 1.039113,-1.03914 c 0.221252,-0.22124 1.132068,0.33332 2.042168,1.24342 l 23.76499,23.765 c 0.9101,0.91011 1.46467,1.82091 1.24341,2.04216 l -1.03911,1.03913 c -0.22126,0.22125 -1.13207,-0.33331 -2.04217,-1.24342 L 99.468829,142.86733 c -0.910124,-0.9101 -1.464682,-1.82092 -1.24342,-2.04217 z" />
    <path
       id="path6651"
       style="fill:#af9885;fill-opacity:1;stroke-width:1.36841;stroke-linecap:square"
       d="m 148.32293,171.8831 1.03912,-1.03912 c 0.22125,-0.22125 1.13206,0.33332 2.04217,1.24342 l 23.76498,23.76498 c 0.91009,0.91011 1.46467,1.82094 1.24343,2.04217 l -1.03913,1.03913 c -0.22127,0.22126 -1.13207,-0.33332 -2.04217,-1.24343 l -23.76498,-23.76498 c -0.91011,-0.91009 -1.46469,-1.82091 -1.24342,-2.04217 z" />
    <path
       id="rect6100"
       style="fill:#676875;fill-opacity:1;stroke-width:5.62196;stroke-linecap:square"
       d="M 25.942102,72.930099 C 49.35491,43.311112 74.574583,20.789288 106.3294,39.09841 157.11569,61.04297 81.224538,57.468837 47.933828,88.878834 14.643145,120.28883 30.637995,190.85123 11.009389,138.71523 -4.3283533,106.74461 2.5292803,102.54906 25.942102,72.930099 Z"
       sodipodi:nodetypes="zczcz" />
    <path
       id="path6944"
       style="fill:#86899a;fill-opacity:1;stroke-width:4.92303;stroke-linecap:square"
       d="M 31.993986,73.322524 C 46.022049,56.414799 73.029591,27.273877 100.1302,42.047838 143.76772,59.244027 74.955098,55.308846 44.511426,84.179487 14.067762,113.05014 27.682557,178.11493 12.570741,133.20124 0.41017679,105.79205 17.965916,90.230253 31.993986,73.322524 Z"
       sodipodi:nodetypes="zczcz" />
    <path
       id="path5579"
       style="fill:#574435;fill-opacity:1;stroke-width:5.19414;stroke-linecap:square"
       d="M 225.95391,60.757621 C 221.38976,56.193469 215.72798,54.50644 213.25937,56.97506 L 70.342705,199.89171 c -2.468609,2.46862 -0.781574,8.13039 3.782582,12.69455 4.564166,4.56416 10.225945,6.25121 12.694554,3.78259 L 229.7365,73.452195 c 2.46862,-2.468619 0.78157,-8.130392 -3.78259,-12.694574 z" />
    <path
       id="path5581"
       style="fill:#6c5442;fill-opacity:1;stroke-width:4.21599;stroke-linecap:square"
       d="m 223.74912,65.234648 c -3.14018,-3.140167 -7.57127,-3.765086 -9.93519,-1.401177 L 76.958467,200.68896 c -2.363917,2.3639 -1.73899,6.795 1.401169,9.93516 3.140149,3.14015 7.571259,3.76509 9.935167,1.40117 L 225.15028,75.169828 c 2.36392,-2.363926 1.73899,-6.795021 -1.40116,-9.93518 z" />
    <path
       id="path5583"
       style="fill:#af9885;fill-opacity:1;stroke-width:1.36841;stroke-linecap:square"
       d="m 112.95363,185.55618 -1.03914,-1.03914 c -0.22124,-0.22124 -1.13205,0.33332 -2.04217,1.24342 l -23.764978,23.76498 c -0.910114,0.91012 -1.464662,1.82093 -1.24342,2.04217 l 1.039141,1.03913 c 0.221252,0.22127 1.132045,-0.3333 2.04216,-1.24342 l 23.764987,-23.76498 c 0.91011,-0.9101 1.46468,-1.8209 1.24342,-2.04216 z" />
    <path
       id="path5585"
       style="fill:#af9885;fill-opacity:1;stroke-width:1.36841;stroke-linecap:square"
       d="m 119.34831,169.26757 -1.03911,-1.03912 c -0.22126,-0.22125 -1.13208,0.33331 -2.04218,1.24342 l -23.764975,23.76498 c -0.910124,0.9101 -1.464672,1.82092 -1.24342,2.04217 l 1.039095,1.03911 c 0.221279,0.22127 1.132082,-0.3333 2.042196,-1.2434 l 23.764974,-23.76499 c 0.9101,-0.91009 1.46468,-1.82091 1.24342,-2.04217 z" />
    <path
       id="path5587"
       style="fill:#af9885;fill-opacity:1;stroke-width:1.36841;stroke-linecap:square"
       d="m 149.43661,132.46572 -1.03913,-1.03912 c -0.22122,-0.22122 -1.13207,0.33332 -2.04217,1.24342 l -23.76498,23.76499 c -0.91009,0.91011 -1.46465,1.82094 -1.24342,2.04217 l 1.03912,1.03913 c 0.22128,0.22126 1.13208,-0.33331 2.04218,-1.24341 l 23.76498,-23.76498 c 0.91012,-0.91011 1.46467,-1.82092 1.24342,-2.0422 z" />
    <path
       id="path5589"
       style="fill:#af9885;fill-opacity:1;stroke-width:1.36841;stroke-linecap:square"
       d="m 195.89074,99.83712 -1.03913,-1.039131 c -0.22124,-0.221229 -1.13206,0.333326 -2.04218,1.243421 l -23.76497,23.76498 c -0.9101,0.91009 -1.46466,1.82094 -1.24342,2.04217 l 1.03911,1.03913 c 0.22127,0.22127 1.13208,-0.33334 2.04217,-1.24343 l 23.76499,-23.76498 c 0.91011,-0.9101 1.46468,-1.82089 1.24343,-2.04216 z" />
    <path
       id="path5591"
       style="fill:#af9885;fill-opacity:1;stroke-width:1.36841;stroke-linecap:square"
       d="m 188.70171,92.881723 -1.03913,-1.039117 c -0.22124,-0.221255 -1.13204,0.333304 -2.04218,1.243419 l -23.76496,23.764965 c -0.91012,0.91012 -1.46469,1.82092 -1.24343,2.04218 l 1.03912,1.03912 c 0.22125,0.22125 1.13207,-0.3333 2.04217,-1.24342 l 23.76499,-23.764977 c 0.91011,-0.910119 1.46468,-1.820915 1.24342,-2.04217 z" />
    <path
       id="path5593"
       style="fill:#af9885;fill-opacity:1;stroke-width:1.36841;stroke-linecap:square"
       d="m 151.7746,144.81307 -1.03911,-1.03914 c -0.22126,-0.22123 -1.13207,0.33333 -2.04217,1.24342 l -23.76499,23.76501 c -0.9101,0.91011 -1.46467,1.82091 -1.24341,2.04216 l 1.03911,1.03912 c 0.22126,0.22125 1.13207,-0.3333 2.04217,-1.24341 l 23.76498,-23.76499 c 0.91012,-0.91009 1.46468,-1.82091 1.24342,-2.04217 z" />
    <path
       id="path5595"
       style="fill:#af9885;fill-opacity:1;stroke-width:1.36841;stroke-linecap:square"
       d="m 101.67708,175.87102 -1.03912,-1.03912 c -0.22125,-0.22125 -1.132065,0.33332 -2.04217,1.24342 L 74.83081,199.8403 c -0.910096,0.91011 -1.464672,1.82093 -1.243429,2.04217 l 1.039122,1.03913 c 0.221271,0.22126 1.132073,-0.33333 2.042178,-1.24343 l 23.764979,-23.76498 c 0.91011,-0.9101 1.46468,-1.82091 1.24342,-2.04217 z" />
    <path
       id="path5597"
       style="fill:#676875;fill-opacity:1;stroke-width:5.62196;stroke-linecap:square"
       d="M 224.0579,76.918015 C 200.6451,47.299029 175.42542,24.777204 143.67061,43.086326 c -50.786297,21.94456 25.10486,18.370427 58.39556,49.780424 33.29068,31.40999 17.29584,101.97239 36.92444,49.8364 15.33775,-31.97062 8.48012,-36.16618 -14.93271,-65.785135 z"
       sodipodi:nodetypes="zczcz" />
    <path
       id="path5599"
       style="fill:#86899a;fill-opacity:1;stroke-width:4.92303;stroke-linecap:square"
       d="M 218.00602,77.31044 C 203.97796,60.402715 176.97041,31.261793 149.86981,46.035754 c -43.63752,17.196189 25.1751,13.261008 55.61876,42.13165 30.44367,28.870646 16.82888,93.935446 31.94069,49.021756 12.16057,-27.40919 -5.39517,-42.970991 -19.42324,-59.87872 z"
       sodipodi:nodetypes="zczcz" />
  </g>
</svg>
