<?xml version="1.0" encoding="UTF-8" standalone="no"?>
<!-- Created with Inkscape (http://www.inkscape.org/) -->

<svg
   width="250"
   height="250"
   viewBox="0 0 250 250.00001"
   version="1.1"
   id="svg5"
   inkscape:version="1.2.2 (b0a8486541, 2022-12-01)"
   sodipodi:docname="scientist.svg"
   xmlns:inkscape="http://www.inkscape.org/namespaces/inkscape"
   xmlns:sodipodi="http://sodipodi.sourceforge.net/DTD/sodipodi-0.dtd"
   xmlns="http://www.w3.org/2000/svg"
   xmlns:svg="http://www.w3.org/2000/svg">
  <sodipodi:namedview
     id="namedview7"
     pagecolor="#ffffff"
     bordercolor="#000000"
     borderopacity="0.25"
     inkscape:showpageshadow="2"
     inkscape:pageopacity="0.0"
     inkscape:pagecheckerboard="0"
     inkscape:deskcolor="#d1d1d1"
     inkscape:document-units="px"
     showgrid="false"
     inkscape:zoom="1.5981903"
     inkscape:cx="124.20299"
     inkscape:cy="100.42609"
     inkscape:window-width="1918"
     inkscape:window-height="1056"
     inkscape:window-x="0"
     inkscape:window-y="22"
     inkscape:window-maximized="1"
     inkscape:current-layer="layer1" />
  <defs
     id="defs2" />
  <g
     inkscape:label="Layer 1"
     inkscape:groupmode="layer"
     id="layer1">
    <path
       id="path6303"
       style="fill:#ffffff;fill-opacity:1;stroke-width:1.84078;stroke-linecap:round;stroke-linejoin:round"
       d="m 136.03516,19.203125 c -22.94314,0.08217 -45.887412,0.233141 -68.826176,0.697266 -9.921406,1.822818 -18.308699,9.45706 -21.715343,18.860872 -4.243866,10.891097 -2.599092,23.70848 3.781787,33.433407 12.298165,21.957896 24.596329,43.91579 36.894494,65.87369 -11.015548,22.74358 -22.511525,45.28918 -31.966797,68.74414 -1.979607,13.08149 4.046921,27.12265 15.152344,34.40625 6.514649,3.50863 14.102133,4.28283 21.388672,3.99219 26.026409,-0.17568 52.060459,-0.19436 78.074219,-1.10742 10.89765,-2.67018 19.58514,-12.1622 21.78423,-23.0955 2.49134,-10.63567 -0.0309,-22.13458 -6.06981,-31.15169 -10.18736,-18.0042 -20.37472,-36.00839 -30.56208,-54.01258 12.2657,-25.32477 24.62666,-50.605583 36.29688,-76.210938 2.83842,-13.098365 -2.46763,-27.687221 -13.32994,-35.62453 -5.52781,-3.676344 -12.30038,-5.075006 -18.87084,-4.870833 -7.34388,0.02189 -14.68776,0.04378 -22.03164,0.06568 z" />
    <path
       id="path5833"
       style="fill:#cc8edd;stroke-width:1.84078;stroke-linecap:round;stroke-linejoin:round;fill-opacity:1"
       d="m 156.64547,30.865526 c -28.90301,0.07451 -57.808445,-0.0339 -86.708823,0.47367 -5.734372,0.513085 -10.816516,5.162552 -13.369588,11.122337 -2.726161,6.314577 -2.341681,14.316107 0.984304,20.221408 8.029163,15.115443 16.581602,29.831496 24.863374,44.753879 5.669082,10.09537 11.338165,20.19075 17.007247,30.28613 -11.39088,23.4312 -23.124361,46.6555 -33.57202,70.69922 -1.555593,9.83648 3.64322,20.49545 11.648571,23.80645 5.666133,1.91317 11.608706,1.03797 17.412545,1.19489 23.70654,-0.0674 47.41731,-0.0207 71.11722,-0.77869 5.86482,-0.98921 10.79079,-6.33627 12.80311,-12.79812 2.17534,-6.90465 0.93491,-14.93319 -2.66381,-20.85761 -2.87846,-5.18658 -5.86942,-10.28514 -8.74099,-15.47721 -8.90254,-15.77404 -17.80508,-31.54809 -26.70762,-47.32214 12.75344,-26.23464 25.61061,-52.402141 38.02436,-78.863277 2.19666,-9.623677 -2.32236,-20.649038 -10.04663,-24.644509 -3.77664,-1.989464 -8.00865,-1.825862 -12.05125,-1.816428 z" />
    <path
       id="rect6418"
       style="fill:#ad57c3;stroke-width:1.71153;stroke-linecap:round;stroke-linejoin:round;fill-opacity:1"
       d="m 95.56171,43.615219 h 53.19895 c 5.17282,0 9.33721,4.164395 9.33721,9.337208 v 6.364569 c 0,5.172813 -4.16439,9.337207 -9.33721,9.337207 H 95.56171 c -5.172813,0 -9.337207,-4.164394 -9.337207,-9.337207 v -6.364569 c 0,-5.172813 4.164394,-9.337208 9.337207,-9.337208 z" />
    <path
       id="path6421"
       style="fill:#ad57c3;fill-opacity:1;stroke-width:1.20011;stroke-linecap:round;stroke-linejoin:round"
       d="m 101.40932,79.036792 h 26.15632 c 2.54333,0 4.59083,4.164395 4.59083,9.337208 v 6.364569 c 0,5.172813 -2.0475,9.337211 -4.59083,9.337211 h -26.15632 c -2.543318,0 -4.590826,-4.164398 -4.590826,-9.337211 V 88.374 c 0,-5.172813 2.047508,-9.337208 4.590826,-9.337208 z" />
    <path
       id="path6423"
       style="fill:#ad57c3;fill-opacity:1;stroke-width:1.20011;stroke-linecap:round;stroke-linejoin:round"
       d="m 106.26005,150.07368 h 26.15632 c 2.54333,0 4.59083,4.16439 4.59083,9.3372 v 6.36457 c 0,5.17282 -2.0475,9.33721 -4.59083,9.33721 h -26.15632 c -2.54332,0 -4.59083,-4.16439 -4.59083,-9.33721 v -6.36457 c 0,-5.17281 2.04751,-9.3372 4.59083,-9.3372 z" />
    <path
       id="path6425"
       style="fill:#ad57c3;fill-opacity:1;stroke-width:1.20011;stroke-linecap:round;stroke-linejoin:round"
       d="m 89.022493,194.42618 h 26.156317 c 2.54333,0 4.59083,4.16439 4.59083,9.3372 v 6.36457 c 0,5.17282 -2.0475,9.33721 -4.59083,9.33721 H 89.022493 c -2.54332,0 -4.59083,-4.16439 -4.59083,-9.33721 v -6.36457 c 0,-5.17281 2.04751,-9.3372 4.59083,-9.3372 z" />
    <path
       id="path6427"
       style="fill:#ad57c3;fill-opacity:1;stroke-width:1.20011;stroke-linecap:round;stroke-linejoin:round"
       d="m 135.85911,190.39207 h 26.15632 c 2.54333,0 4.59083,4.16439 4.59083,9.3372 v 6.36457 c 0,5.17282 -2.0475,9.33721 -4.59083,9.33721 h -26.15632 c -2.54332,0 -4.59083,-4.16439 -4.59083,-9.33721 v -6.36457 c 0,-5.17281 2.04751,-9.3372 4.59083,-9.3372 z" />
  </g>
</svg>
